<svg xmlns="http://www.w3.org/2000/svg" width="512" height="512" viewBox="0 0 512 512">
  <defs>
    <linearGradient id="bgGrad" x1="0%" y1="0%" x2="100%" y2="100%">
      <stop offset="0%" style="stop-color:#8359f8"/>
      <stop offset="100%" style="stop-color:#22d3ee"/>
    </linearGradient>
  </defs>
  <rect width="512" height="512" rx="96" fill="url(#bgGrad)"/>
  <path d="M256 128c-70.7 0-128 57.3-128 128s57.3 128 128 128 128-57.3 128-128-57.3-128-128-128zm0 224c-52.9 0-96-43.1-96-96s43.1-96 96-96 96 43.1 96 96-43.1 96-96 96z" fill="white" opacity="0.3"/>
  <path d="M380 180c0-8.8-7.2-16-16-16H148c-8.8 0-16 7.2-16 16v152c0 8.8 7.2 16 16 16h216c8.8 0 16-7.2 16-16V180z" fill="white" opacity="0"/>
  <text x="256" y="290" font-family="system-ui, -apple-system, sans-serif" font-size="180" font-weight="700" fill="white" text-anchor="middle">∞</text>
</svg>
